<mxfile host="Electron" modified="2023-04-28T12:56:43.657Z" agent="Mozilla/5.0 (X11; Linux x86_64) AppleWebKit/537.36 (KHTML, like Gecko) draw.io/21.1.2 Chrome/106.0.5249.199 Electron/21.4.3 Safari/537.36" etag="bd5uSCctdA6Rr43tyDf_" version="21.1.2" type="device">
  <diagram name="Page-1" id="2YBvvXClWsGukQMizWep">
    <mxGraphModel dx="1434" dy="781" grid="1" gridSize="10" guides="1" tooltips="1" connect="1" arrows="1" fold="1" page="1" pageScale="1" pageWidth="850" pageHeight="1100" math="0" shadow="0">
      <root>
        <mxCell id="0" />
        <mxCell id="1" parent="0" />
        <mxCell id="7N-NiP9JxCAHFGRjl6bu-51" value="" style="rounded=0;whiteSpace=wrap;html=1;strokeColor=#b85450;fillColor=#F8CECC;" parent="1" vertex="1">
          <mxGeometry x="30" y="770" width="500" height="100" as="geometry" />
        </mxCell>
        <mxCell id="7N-NiP9JxCAHFGRjl6bu-17" value="Alternative" style="shape=umlFrame;whiteSpace=wrap;html=1;pointerEvents=0;width=70;height=20;fillColor=none;" parent="1" vertex="1">
          <mxGeometry x="30" y="770" width="500" height="100" as="geometry" />
        </mxCell>
        <mxCell id="7N-NiP9JxCAHFGRjl6bu-5" value="" style="shape=umlLifeline;perimeter=lifelinePerimeter;whiteSpace=wrap;html=1;container=1;dropTarget=0;collapsible=0;recursiveResize=0;outlineConnect=0;portConstraint=eastwest;newEdgeStyle={&quot;edgeStyle&quot;:&quot;elbowEdgeStyle&quot;,&quot;elbow&quot;:&quot;vertical&quot;,&quot;curved&quot;:0,&quot;rounded&quot;:0};participant=umlActor;" parent="1" vertex="1">
          <mxGeometry x="150" y="540" width="20" height="540" as="geometry" />
        </mxCell>
        <mxCell id="7N-NiP9JxCAHFGRjl6bu-11" value="" style="html=1;points=[];perimeter=orthogonalPerimeter;outlineConnect=0;targetShapes=umlLifeline;portConstraint=eastwest;newEdgeStyle={&quot;edgeStyle&quot;:&quot;elbowEdgeStyle&quot;,&quot;elbow&quot;:&quot;vertical&quot;,&quot;curved&quot;:0,&quot;rounded&quot;:0};" parent="7N-NiP9JxCAHFGRjl6bu-5" vertex="1">
          <mxGeometry x="5" y="60" width="10" height="450" as="geometry" />
        </mxCell>
        <mxCell id="7N-NiP9JxCAHFGRjl6bu-6" value="Node API&lt;br&gt;endpoint: /api/login" style="shape=umlLifeline;perimeter=lifelinePerimeter;whiteSpace=wrap;html=1;container=1;dropTarget=0;collapsible=0;recursiveResize=0;outlineConnect=0;portConstraint=eastwest;newEdgeStyle={&quot;edgeStyle&quot;:&quot;elbowEdgeStyle&quot;,&quot;elbow&quot;:&quot;vertical&quot;,&quot;curved&quot;:0,&quot;rounded&quot;:0};" parent="1" vertex="1">
          <mxGeometry x="265" y="540" width="125" height="540" as="geometry" />
        </mxCell>
        <mxCell id="7N-NiP9JxCAHFGRjl6bu-16" value="" style="html=1;points=[];perimeter=orthogonalPerimeter;outlineConnect=0;targetShapes=umlLifeline;portConstraint=eastwest;newEdgeStyle={&quot;edgeStyle&quot;:&quot;elbowEdgeStyle&quot;,&quot;elbow&quot;:&quot;vertical&quot;,&quot;curved&quot;:0,&quot;rounded&quot;:0};" parent="7N-NiP9JxCAHFGRjl6bu-6" vertex="1">
          <mxGeometry x="57.5" y="60" width="10" height="410" as="geometry" />
        </mxCell>
        <mxCell id="C-rIPeblgNh_0IEKpaFD-3" style="edgeStyle=elbowEdgeStyle;rounded=0;orthogonalLoop=1;jettySize=auto;html=1;elbow=vertical;curved=0;" edge="1" parent="1" source="7N-NiP9JxCAHFGRjl6bu-7" target="7N-NiP9JxCAHFGRjl6bu-6">
          <mxGeometry relative="1" as="geometry">
            <Array as="points">
              <mxPoint x="420" y="940" />
            </Array>
          </mxGeometry>
        </mxCell>
        <mxCell id="C-rIPeblgNh_0IEKpaFD-4" value="Return Access Token" style="edgeLabel;html=1;align=center;verticalAlign=middle;resizable=0;points=[];" vertex="1" connectable="0" parent="C-rIPeblgNh_0IEKpaFD-3">
          <mxGeometry x="0.142" y="-1" relative="1" as="geometry">
            <mxPoint x="19" as="offset" />
          </mxGeometry>
        </mxCell>
        <mxCell id="7N-NiP9JxCAHFGRjl6bu-7" value="Node API&lt;br&gt;Controller" style="shape=umlLifeline;perimeter=lifelinePerimeter;whiteSpace=wrap;html=1;container=1;dropTarget=0;collapsible=0;recursiveResize=0;outlineConnect=0;portConstraint=eastwest;newEdgeStyle={&quot;edgeStyle&quot;:&quot;elbowEdgeStyle&quot;,&quot;elbow&quot;:&quot;vertical&quot;,&quot;curved&quot;:0,&quot;rounded&quot;:0};" parent="1" vertex="1">
          <mxGeometry x="450" y="540" width="100" height="540" as="geometry" />
        </mxCell>
        <mxCell id="7N-NiP9JxCAHFGRjl6bu-103" value="" style="html=1;points=[];perimeter=orthogonalPerimeter;outlineConnect=0;targetShapes=umlLifeline;portConstraint=eastwest;newEdgeStyle={&quot;edgeStyle&quot;:&quot;elbowEdgeStyle&quot;,&quot;elbow&quot;:&quot;vertical&quot;,&quot;curved&quot;:0,&quot;rounded&quot;:0};" parent="7N-NiP9JxCAHFGRjl6bu-7" vertex="1">
          <mxGeometry x="45" y="130" width="10" height="310" as="geometry" />
        </mxCell>
        <mxCell id="7N-NiP9JxCAHFGRjl6bu-19" value="&lt;font style=&quot;font-size: 10px;&quot;&gt;[if credentials are invalid]&lt;/font&gt;" style="text;html=1;align=center;verticalAlign=middle;resizable=0;points=[];autosize=1;strokeColor=none;fillColor=none;" parent="1" vertex="1">
          <mxGeometry x="30" y="805" width="130" height="30" as="geometry" />
        </mxCell>
        <mxCell id="7N-NiP9JxCAHFGRjl6bu-28" style="edgeStyle=elbowEdgeStyle;rounded=0;orthogonalLoop=1;jettySize=auto;html=1;elbow=vertical;curved=0;" parent="1" source="7N-NiP9JxCAHFGRjl6bu-16" target="7N-NiP9JxCAHFGRjl6bu-7" edge="1">
          <mxGeometry relative="1" as="geometry">
            <Array as="points">
              <mxPoint x="360" y="690" />
              <mxPoint x="420" y="680" />
            </Array>
          </mxGeometry>
        </mxCell>
        <mxCell id="7N-NiP9JxCAHFGRjl6bu-33" value="Get Account Info" style="edgeLabel;html=1;align=center;verticalAlign=middle;resizable=0;points=[];labelBackgroundColor=#FFFFFF;" parent="7N-NiP9JxCAHFGRjl6bu-28" vertex="1" connectable="0">
          <mxGeometry x="-0.0706" y="-3" relative="1" as="geometry">
            <mxPoint y="-3" as="offset" />
          </mxGeometry>
        </mxCell>
        <mxCell id="7N-NiP9JxCAHFGRjl6bu-29" style="edgeStyle=elbowEdgeStyle;rounded=0;orthogonalLoop=1;jettySize=auto;html=1;elbow=vertical;curved=0;" parent="1" source="7N-NiP9JxCAHFGRjl6bu-11" target="7N-NiP9JxCAHFGRjl6bu-6" edge="1">
          <mxGeometry relative="1" as="geometry">
            <Array as="points">
              <mxPoint x="240" y="660" />
              <mxPoint x="230" y="660" />
            </Array>
          </mxGeometry>
        </mxCell>
        <mxCell id="7N-NiP9JxCAHFGRjl6bu-32" value="Send Credentials Info" style="edgeLabel;html=1;align=center;verticalAlign=middle;resizable=0;points=[];labelBackgroundColor=#FFFFFF;" parent="7N-NiP9JxCAHFGRjl6bu-29" vertex="1" connectable="0">
          <mxGeometry x="-0.3754" y="2" relative="1" as="geometry">
            <mxPoint x="28" as="offset" />
          </mxGeometry>
        </mxCell>
        <mxCell id="7N-NiP9JxCAHFGRjl6bu-31" style="edgeStyle=elbowEdgeStyle;rounded=0;orthogonalLoop=1;jettySize=auto;html=1;elbow=vertical;curved=0;" parent="1" source="7N-NiP9JxCAHFGRjl6bu-16" target="7N-NiP9JxCAHFGRjl6bu-5" edge="1">
          <mxGeometry relative="1" as="geometry">
            <Array as="points">
              <mxPoint x="300" y="840" />
              <mxPoint x="280" y="780" />
              <mxPoint x="260" y="750" />
            </Array>
          </mxGeometry>
        </mxCell>
        <mxCell id="7N-NiP9JxCAHFGRjl6bu-35" value="Error Message" style="edgeLabel;html=1;align=center;verticalAlign=middle;resizable=0;points=[];labelBackgroundColor=#F8CECC;" parent="7N-NiP9JxCAHFGRjl6bu-31" vertex="1" connectable="0">
          <mxGeometry x="0.2816" y="1" relative="1" as="geometry">
            <mxPoint x="27" as="offset" />
          </mxGeometry>
        </mxCell>
        <mxCell id="7N-NiP9JxCAHFGRjl6bu-106" style="edgeStyle=elbowEdgeStyle;rounded=0;orthogonalLoop=1;jettySize=auto;html=1;elbow=vertical;curved=0;" parent="1" source="7N-NiP9JxCAHFGRjl6bu-16" target="7N-NiP9JxCAHFGRjl6bu-5" edge="1">
          <mxGeometry relative="1" as="geometry">
            <Array as="points">
              <mxPoint x="250" y="990" />
            </Array>
          </mxGeometry>
        </mxCell>
        <mxCell id="7N-NiP9JxCAHFGRjl6bu-107" value="Display Access Token" style="edgeLabel;html=1;align=center;verticalAlign=middle;resizable=0;points=[];labelBackgroundColor=#FFFFFF;" parent="7N-NiP9JxCAHFGRjl6bu-106" vertex="1" connectable="0">
          <mxGeometry x="0.057" y="3" relative="1" as="geometry">
            <mxPoint y="-4" as="offset" />
          </mxGeometry>
        </mxCell>
        <mxCell id="7N-NiP9JxCAHFGRjl6bu-108" value="Details" style="shape=umlFrame;whiteSpace=wrap;html=1;pointerEvents=0;width=70;height=20;" parent="1" vertex="1">
          <mxGeometry x="20" y="540" width="120" height="100" as="geometry" />
        </mxCell>
        <mxCell id="7N-NiP9JxCAHFGRjl6bu-109" value="&lt;h1 style=&quot;font-size: 10px;&quot;&gt;&lt;span style=&quot;font-weight: 400;&quot;&gt;Before login, the user must verify his account by email. Otherwise, login will fail.&lt;/span&gt;&lt;/h1&gt;" style="text;html=1;strokeColor=none;fillColor=none;spacing=5;spacingTop=-20;whiteSpace=wrap;overflow=hidden;rounded=0;fontSize=10;" parent="1" vertex="1">
          <mxGeometry x="30" y="570" width="100" height="60" as="geometry" />
        </mxCell>
        <mxCell id="C-rIPeblgNh_0IEKpaFD-1" style="edgeStyle=elbowEdgeStyle;rounded=0;orthogonalLoop=1;jettySize=auto;html=1;elbow=vertical;curved=0;" edge="1" parent="1" source="7N-NiP9JxCAHFGRjl6bu-103" target="7N-NiP9JxCAHFGRjl6bu-6">
          <mxGeometry relative="1" as="geometry">
            <Array as="points">
              <mxPoint x="410" y="820" />
            </Array>
          </mxGeometry>
        </mxCell>
        <mxCell id="C-rIPeblgNh_0IEKpaFD-2" value="Return Error" style="edgeLabel;html=1;align=center;verticalAlign=middle;resizable=0;points=[];labelBackgroundColor=#F8CECC;" vertex="1" connectable="0" parent="C-rIPeblgNh_0IEKpaFD-1">
          <mxGeometry x="-0.1071" y="1" relative="1" as="geometry">
            <mxPoint y="-1" as="offset" />
          </mxGeometry>
        </mxCell>
      </root>
    </mxGraphModel>
  </diagram>
</mxfile>
